<svg width="323" height="50" viewBox="0 0 323 50" fill="none" xmlns="http://www.w3.org/2000/svg">
<path d="M67.692 24.024C67.692 25.696 68.1447 26.994 69.0502 27.918C69.9557 28.82 71.1042 29.271 72.4956 29.271C74.0636 29.271 75.2231 28.853 75.974 28.017C76.7249 27.159 77.1004 25.85 77.1004 24.09H81.7715C81.7715 26.026 81.3739 27.698 80.5788 29.106C79.8058 30.492 78.7347 31.548 77.3654 32.274C75.9961 32.978 74.4501 33.33 72.7275 33.33H72.2637C70.3643 33.33 68.6637 32.945 67.1619 32.175C65.6601 31.405 64.4785 30.272 63.6172 28.776C62.7559 27.258 62.3252 25.432 62.3252 23.298V20.064C62.3252 17.996 62.7559 16.203 63.6172 14.685C64.4785 13.167 65.6491 12.012 67.1288 11.22C68.6306 10.428 70.2981 10.032 72.1311 10.032H72.5949C74.3618 10.032 75.9298 10.384 77.2991 11.088C78.6905 11.77 79.7838 12.815 80.5788 14.223C81.3739 15.609 81.7715 17.314 81.7715 19.338H76.9016C76.9016 17.622 76.5151 16.324 75.7421 15.444C74.9912 14.542 73.898 14.091 72.4624 14.091C71.071 14.091 69.9226 14.553 69.0171 15.477C68.1337 16.379 67.692 17.666 67.692 19.338V24.024ZM85.7341 10.362H96.2027V14.421H93.5524V28.941H96.2027V33H85.7341V28.941H88.4175V14.421H85.7341V10.362ZM110.38 14.454V33H105.311V14.454H98.851V10.362H116.806V14.454H110.38ZM119.445 10.362H129.913V14.421H127.263V28.941H129.913V33H119.445V28.941H122.128V14.421H119.445V10.362ZM133.721 33V31.383L144.189 14.421H134.516V10.362H151.577V12.012L141.142 28.941H151.842V33H133.721ZM155.614 33V10.362H171.615L171.052 14.421H160.649V19.371H170.356V23.43H160.649V28.941H171.151L171.714 33H155.614ZM182.039 22.572C181.796 22.22 181.465 21.703 181.045 21.021C180.625 20.317 180.349 19.855 180.217 19.635L180.084 19.734V33H175.413V10.362H179.753L186.909 20.856L187.903 22.407C188.256 23.023 188.532 23.474 188.731 23.76L188.83 23.661V10.362H193.501V33H189.161L182.039 22.572ZM215.47 33H209.805L203.444 10.362H208.778L212.786 25.179H212.952L216.994 10.362H222.128L226.137 25.179H226.303L230.311 10.362H235.148L228.754 33H223.155L219.445 19.404H219.246L215.47 33ZM251.039 28.545H241.995L240.404 33H235.468L243.717 10.362H249.813L258.062 33H252.695L251.039 28.545ZM243.386 24.684H249.68C248.841 22.198 247.825 19.239 246.633 15.807H246.467L243.386 24.684ZM269.874 14.454V33H264.805V14.454H258.345V10.362H276.3V14.454H269.874ZM283.511 24.024C283.511 25.696 283.964 26.994 284.869 27.918C285.775 28.82 286.923 29.271 288.315 29.271C289.883 29.271 291.042 28.853 291.793 28.017C292.544 27.159 292.92 25.85 292.92 24.09H297.591C297.591 26.026 297.193 27.698 296.398 29.106C295.625 30.492 294.554 31.548 293.185 32.274C291.815 32.978 290.269 33.33 288.547 33.33H288.083C286.184 33.33 284.483 32.945 282.981 32.175C281.479 31.405 280.298 30.272 279.436 28.776C278.575 27.258 278.144 25.432 278.144 23.298V20.064C278.144 17.996 278.575 16.203 279.436 14.685C280.298 13.167 281.468 12.012 282.948 11.22C284.45 10.428 286.117 10.032 287.95 10.032H288.414C290.181 10.032 291.749 10.384 293.118 11.088C294.51 11.77 295.603 12.815 296.398 14.223C297.193 15.609 297.591 17.314 297.591 19.338H292.721C292.721 17.622 292.334 16.324 291.561 15.444C290.81 14.542 289.717 14.091 288.282 14.091C286.89 14.091 285.742 14.553 284.836 15.477C283.953 16.379 283.511 17.666 283.511 19.338V24.024ZM314.538 33V23.562H306.687V33H301.552V10.362H306.654V19.338H314.538V10.362H319.64V33H314.538Z" fill="white"/>
<path d="M35.4577 21.8281C34.9688 24.7213 34.3504 26.8984 33.6028 28.3594C33.5164 28.7317 33.1856 29.4982 32.6106 30.6581C32.0355 31.8183 31.5179 33.0858 31.0577 34.4608C30.5975 35.8358 30.3675 37.1822 30.3675 38.5C30.3675 40.4192 29.7563 41.8157 28.5342 42.6894C27.3121 43.563 25.1625 44 22.0855 44C19.0085 44 16.8589 43.563 15.6367 42.6894C14.4145 41.8157 13.8034 40.4192 13.8034 38.5C13.8034 37.1822 13.5734 35.8358 13.1132 34.4608C12.6531 33.0858 12.1355 31.8183 11.5604 30.6581C10.9852 29.4982 10.6545 28.7317 10.5682 28.3594C9.82055 26.8984 9.20227 24.7213 8.71341 21.8281C8.36832 21.9141 8.00885 21.9642 7.635 21.9785C7.26118 21.9928 6.837 21.9857 6.36252 21.957C5.88801 21.9284 5.48542 21.8997 5.15472 21.8711C4.82402 21.8425 4.37107 21.7708 3.79594 21.6562C3.22081 21.5417 2.81101 21.4629 2.56657 21.4199C2.32214 21.377 1.86921 21.2838 1.2078 21.1406C0.546386 20.9974 0.143786 20.9115 0 20.8828C0.632658 20.0234 1.11434 19.4004 1.44505 19.0137C1.77575 18.627 2.24306 18.1973 2.84696 17.7246C3.45086 17.252 4.11946 16.9297 4.85276 16.7578C5.58608 16.5859 6.45597 16.5 7.46246 16.5C7.60626 16.5 7.89384 16.543 8.32517 16.6289C8.35394 15.7695 8.48336 15.0104 8.71341 14.3516C8.39709 13.2917 8.25329 12.2604 8.28205 11.2578C8.28205 10.513 8.28923 9.93294 8.30361 9.51758C8.318 9.10222 8.3755 8.47916 8.47616 7.64844C8.57681 6.81772 8.74218 6.10156 8.97222 5.5C9.20227 4.89844 9.51141 4.23242 9.89965 3.50196C10.2879 2.77148 10.8127 2.11263 11.4741 1.52539C12.1355 0.938151 12.9119 0.429688 13.8034 0C12.7394 2.09115 12.2074 3.96745 12.2074 5.62892C12.2074 7.0612 12.4518 8.45053 12.9407 9.79688C15.1838 8.76562 18.232 8.25 22.0855 8.25C25.9389 8.25 28.9872 8.76562 31.2302 9.79688C31.7192 8.45053 31.9635 7.0612 31.9635 5.62892C31.9635 3.96745 31.4315 2.09115 30.3675 0C31.2589 0.429688 32.0355 0.938151 32.697 1.52539C33.3582 2.11263 33.883 2.77148 34.2714 3.50196C34.6596 4.23242 34.9688 4.89844 35.1987 5.5C35.4287 6.10156 35.5941 6.81772 35.6948 7.64844C35.7953 8.47916 35.853 9.10222 35.8674 9.51758C35.8817 9.93294 35.8889 10.513 35.8889 11.2578C35.9176 12.2318 35.7738 13.263 35.4577 14.3516C35.6876 15.0104 35.8171 15.7695 35.8458 16.6289C36.277 16.543 36.5647 16.5 36.7085 16.5C37.7151 16.5 38.585 16.5859 39.3182 16.7578C40.0515 16.9297 40.7201 17.252 41.3241 17.7246C41.9279 18.1973 42.3953 18.627 42.726 19.0137C43.0567 19.4004 43.5382 20.0234 44.1709 20.8828C44.0271 20.9115 43.6246 20.9974 42.9631 21.1406C42.3017 21.2838 41.8489 21.377 41.6043 21.4199C41.36 21.4629 40.9501 21.5417 40.375 21.6562C39.8 21.7708 39.3469 21.8425 39.0162 21.8711C38.6855 21.8997 38.283 21.9284 37.8084 21.957C37.3338 21.9857 36.9098 21.9928 36.536 21.9785C36.1622 21.9642 35.8028 21.9141 35.4577 21.8281ZM22.0855 13.75C19.8137 13.75 17.8654 14.1725 16.2406 15.0176C14.6158 15.8626 13.8034 16.8867 13.8034 18.0898C13.8034 19.0352 14.0694 20.0521 14.6014 21.1406C15.1334 22.2292 15.9027 23.0312 16.9092 23.5469C17.2543 23.7188 17.5203 23.8906 17.7072 24.0625C17.8941 24.2344 18.1385 24.5423 18.4405 24.9863C18.7424 25.4304 18.9653 26.0963 19.1091 26.9844C19.2529 27.8724 19.3248 28.9608 19.3248 30.25C19.3248 31.4817 19.181 32.5559 18.8934 33.4727C18.6059 34.3893 18.2895 35.0625 17.9444 35.4921C17.5994 35.9219 17.283 36.4446 16.9955 37.0606C16.7079 37.6764 16.5641 38.3424 16.5641 39.0585C16.5641 39.7174 17.1824 40.2474 18.419 40.6483C19.6555 41.0495 20.8777 41.25 22.0855 41.25C23.2933 41.25 24.5155 41.0495 25.752 40.6483C26.9886 40.2474 27.6068 39.7174 27.6068 39.0585C27.6068 38.3424 27.4631 37.6764 27.1755 37.0606C26.8879 36.4446 26.5716 35.9219 26.2265 35.4921C25.8814 35.0625 25.5651 34.3893 25.2775 33.4727C24.9899 32.5559 24.8462 31.4817 24.8462 30.25C24.8462 28.9608 24.9253 27.8724 25.0834 26.9844C25.2416 26.0963 25.4716 25.4232 25.7736 24.9648C26.0755 24.5065 26.3199 24.1986 26.5069 24.041C26.6938 23.8835 26.9454 23.7188 27.2618 23.5469C28.2396 23.0312 29.0015 22.222 29.5479 21.1191C30.0942 20.0163 30.3675 19.0065 30.3675 18.0898C30.3675 16.8867 29.5551 15.8626 27.9304 15.0176C26.3056 14.1725 24.3573 13.75 22.0855 13.75Z" fill="white"/>
<path d="M194.392 39.768C194.784 39.768 195.144 39.86 195.472 40.044C195.8 40.22 196.06 40.464 196.252 40.776C196.452 41.08 196.552 41.416 196.552 41.784C196.552 42.336 196.408 42.768 196.12 43.08C195.832 43.392 195.492 43.596 195.1 43.692V43.764C195.308 43.796 195.536 43.876 195.784 44.004C196.032 44.124 196.252 44.332 196.444 44.628C196.644 44.924 196.744 45.316 196.744 45.804C196.744 46.204 196.64 46.572 196.432 46.908C196.232 47.244 195.956 47.512 195.604 47.712C195.26 47.904 194.88 48 194.464 48H191.104V39.768H194.392ZM194.272 43.512C194.728 43.512 195.112 43.36 195.424 43.056C195.736 42.752 195.892 42.376 195.892 41.928C195.892 41.48 195.736 41.104 195.424 40.8C195.112 40.496 194.728 40.344 194.272 40.344H191.752V43.512H194.272ZM194.392 47.424C194.704 47.424 194.988 47.352 195.244 47.208C195.508 47.064 195.716 46.864 195.868 46.608C196.02 46.352 196.096 46.072 196.096 45.768C196.096 45.464 196.02 45.184 195.868 44.928C195.716 44.664 195.508 44.46 195.244 44.316C194.98 44.164 194.696 44.088 194.392 44.088H191.752V47.424H194.392ZM201.274 44.808V48H200.626V44.808L197.674 39.768H198.43L200.962 44.148H200.998L203.566 39.768H204.226L201.274 44.808ZM211.239 40.344V48H210.615V40.344H207.831V39.768H214.023V40.344H211.239ZM215.573 48V39.768H220.661L220.541 40.344H216.221V43.512H220.049V44.088H216.221V47.424H220.649L220.781 48H215.573ZM227.486 45.96H223.142L222.302 48H221.63L225.038 39.768H225.638L229.046 48H228.338L227.486 45.96ZM223.382 45.372H227.246L225.338 40.656H225.29L223.382 45.372ZM238.398 48V40.5H238.338L235.038 48H234.426L231.15 40.5H231.09V48H230.514V39.768H231.546L234.762 47.172H234.774L238.026 39.768H239.046V48H238.398ZM248.162 39.768L251.378 48H250.106L249.41 46.212H245.474L244.79 48H243.65L246.866 39.768H248.162ZM247.49 41.184H247.418L245.894 45.144H249.002L247.49 41.184ZM255.198 39.648C256.102 39.648 256.81 39.848 257.322 40.248C257.842 40.648 258.102 41.216 258.102 41.952V42.096H256.926V41.916C256.926 41.532 256.77 41.236 256.458 41.028C256.146 40.82 255.734 40.716 255.222 40.716C254.654 40.716 254.21 40.812 253.89 41.004C253.578 41.188 253.422 41.456 253.422 41.808C253.422 42.072 253.51 42.288 253.686 42.456C253.87 42.624 254.094 42.756 254.358 42.852C254.63 42.948 255.002 43.056 255.474 43.176C256.082 43.336 256.574 43.492 256.95 43.644C257.326 43.796 257.646 44.024 257.91 44.328C258.182 44.632 258.318 45.036 258.318 45.54C258.318 46.436 258.042 47.092 257.49 47.508C256.946 47.916 256.178 48.12 255.186 48.12C254.194 48.12 253.422 47.912 252.87 47.496C252.326 47.072 252.054 46.46 252.054 45.66L252.066 45.42H253.242L253.23 45.672C253.23 46.136 253.402 46.484 253.746 46.716C254.098 46.94 254.582 47.052 255.198 47.052C255.798 47.052 256.27 46.944 256.614 46.728C256.966 46.504 257.142 46.2 257.142 45.816C257.142 45.512 257.046 45.268 256.854 45.084C256.67 44.892 256.434 44.744 256.146 44.64C255.866 44.536 255.482 44.42 254.994 44.292C254.394 44.132 253.914 43.98 253.554 43.836C253.194 43.692 252.886 43.472 252.63 43.176C252.374 42.872 252.246 42.476 252.246 41.988C252.246 41.196 252.514 40.608 253.05 40.224C253.586 39.84 254.302 39.648 255.198 39.648ZM263.081 39.648C263.721 39.648 264.277 39.772 264.749 40.02C265.229 40.268 265.597 40.62 265.853 41.076C266.109 41.532 266.237 42.06 266.237 42.66H265.061C265.061 42.044 264.889 41.568 264.545 41.232C264.209 40.888 263.721 40.716 263.081 40.716C262.361 40.716 261.813 40.94 261.437 41.388C261.061 41.828 260.873 42.48 260.873 43.344V44.424C260.873 45.288 261.057 45.944 261.425 46.392C261.801 46.832 262.353 47.052 263.081 47.052C263.777 47.052 264.285 46.88 264.605 46.536C264.925 46.184 265.085 45.628 265.085 44.868V44.712H262.757V43.656H266.237V46.464C266.237 47.128 266.261 47.64 266.309 48H265.613C265.509 47.672 265.429 47.344 265.373 47.016C264.853 47.752 264.089 48.12 263.081 48.12C262.017 48.12 261.185 47.796 260.585 47.148C259.993 46.492 259.697 45.584 259.697 44.424V43.344C259.697 42.192 259.993 41.288 260.585 40.632C261.185 39.976 262.017 39.648 263.081 39.648ZM271.634 39.768L274.85 48H273.578L272.882 46.212H268.946L268.262 48H267.122L270.338 39.768H271.634ZM270.962 41.184H270.89L269.366 45.144H272.474L270.962 41.184ZM279.51 39.768C280.238 39.768 280.834 39.94 281.298 40.284C281.77 40.628 282.006 41.1 282.006 41.7C282.006 42.236 281.862 42.692 281.574 43.068C281.294 43.444 280.946 43.672 280.53 43.752V43.812C280.914 43.964 281.23 44.228 281.478 44.604C281.726 44.98 281.85 45.432 281.85 45.96C281.85 46.4 281.874 46.732 281.922 46.956C281.97 47.18 282.034 47.336 282.114 47.424C282.194 47.512 282.31 47.58 282.462 47.628V47.964C282.286 48.036 282.098 48.072 281.898 48.072C281.514 48.072 281.214 47.96 280.998 47.736C280.782 47.504 280.674 47.072 280.674 46.44C280.674 45.792 280.538 45.288 280.266 44.928C280.002 44.56 279.67 44.376 279.27 44.376H277.182V48H276.006V39.768H279.51ZM277.182 40.836V43.308H279.522C279.866 43.308 280.17 43.192 280.434 42.96C280.698 42.728 280.83 42.44 280.83 42.096V42.048C280.83 41.696 280.71 41.408 280.47 41.184C280.23 40.952 279.914 40.836 279.522 40.836H277.182ZM286.901 39.768C287.589 39.768 288.189 39.92 288.701 40.224C289.213 40.52 289.609 40.948 289.889 41.508C290.169 42.06 290.309 42.712 290.309 43.464V44.304C290.309 45.056 290.169 45.712 289.889 46.272C289.609 46.824 289.213 47.252 288.701 47.556C288.189 47.852 287.589 48 286.901 48H284.045V39.768H286.901ZM285.221 40.836V46.932H286.901C287.613 46.932 288.161 46.712 288.545 46.272C288.937 45.824 289.133 45.168 289.133 44.304V43.464C289.133 42.616 288.941 41.968 288.557 41.52C288.181 41.064 287.629 40.836 286.901 40.836H285.221ZM294.771 39.768V40.836H293.811V46.932H294.771V48H291.675V46.932H292.635V40.836H291.675V39.768H294.771ZM299.97 39.768L303.186 48H301.914L301.218 46.212H297.282L296.598 48H295.458L298.674 39.768H299.97ZM299.298 41.184H299.226L297.702 45.144H300.81L299.298 41.184ZM310.462 39.768V48H309.466L305.446 41.976L305.41 41.988V48H304.342V39.768H305.374L309.358 45.72L309.394 45.708V39.768H310.462ZM315.338 39.648C316.242 39.648 316.95 39.848 317.462 40.248C317.982 40.648 318.242 41.216 318.242 41.952V42.096H317.066V41.916C317.066 41.532 316.91 41.236 316.598 41.028C316.286 40.82 315.874 40.716 315.362 40.716C314.794 40.716 314.35 40.812 314.03 41.004C313.718 41.188 313.562 41.456 313.562 41.808C313.562 42.072 313.65 42.288 313.826 42.456C314.01 42.624 314.234 42.756 314.498 42.852C314.77 42.948 315.142 43.056 315.614 43.176C316.222 43.336 316.714 43.492 317.09 43.644C317.466 43.796 317.786 44.024 318.05 44.328C318.322 44.632 318.458 45.036 318.458 45.54C318.458 46.436 318.182 47.092 317.63 47.508C317.086 47.916 316.318 48.12 315.326 48.12C314.334 48.12 313.562 47.912 313.01 47.496C312.466 47.072 312.194 46.46 312.194 45.66L312.206 45.42H313.382L313.37 45.672C313.37 46.136 313.542 46.484 313.886 46.716C314.238 46.94 314.722 47.052 315.338 47.052C315.938 47.052 316.41 46.944 316.754 46.728C317.106 46.504 317.282 46.2 317.282 45.816C317.282 45.512 317.186 45.268 316.994 45.084C316.81 44.892 316.574 44.744 316.286 44.64C316.006 44.536 315.622 44.42 315.134 44.292C314.534 44.132 314.054 43.98 313.694 43.836C313.334 43.692 313.026 43.472 312.77 43.176C312.514 42.872 312.386 42.476 312.386 41.988C312.386 41.196 312.654 40.608 313.19 40.224C313.726 39.84 314.442 39.648 315.338 39.648Z" fill="white"/>
</svg>
